<svg width="751" height="160" viewBox="0 0 751 160" fill="none" xmlns="http://www.w3.org/2000/svg">
<path d="M60.3154 22.3335L3.18555 106.525L0 111.22H11.9482L6.94824 118.544L3.73828 123.247H44.2305L60.6318 140.361L65.8096 145.764V108.213H65.8105V14.2358L60.3154 22.3335ZM59.7959 130.797L47.6846 118.16L46.7969 117.233H15.125L59.7959 51.7993V130.797Z" fill="white"/>
<path d="M80.3262 22.3335L137.456 106.525L140.642 111.22H128.692L133.692 118.544L136.902 123.247H96.4102L80.0088 140.361L74.8311 145.764V14.2358L80.3262 22.3335ZM80.8447 130.797L92.9561 118.16L93.8438 117.233H125.516L80.8447 51.7993V130.797Z" fill="white"/>
<path d="M224.591 44.2449L253.938 119.897C255.14 122.944 256.503 124.989 258.027 126.031C259.55 126.993 260.954 127.514 262.236 127.595V130C260.633 129.84 258.668 129.759 256.343 129.759C254.018 129.679 251.692 129.639 249.367 129.639C246.24 129.639 243.313 129.679 240.587 129.759C237.861 129.759 235.656 129.84 233.972 130V127.595C238.061 127.434 240.667 126.753 241.79 125.55C242.912 124.267 242.672 121.581 241.068 117.492L218.697 57.7156L220.622 56.152L199.694 110.516C198.411 113.723 197.65 116.449 197.409 118.694C197.168 120.859 197.369 122.583 198.01 123.866C198.732 125.149 199.895 126.071 201.498 126.632C203.182 127.194 205.267 127.514 207.753 127.595V130C205.507 129.84 203.142 129.759 200.656 129.759C198.251 129.679 196.006 129.639 193.921 129.639C191.916 129.639 190.193 129.679 188.749 129.759C187.386 129.759 186.103 129.84 184.901 130V127.595C186.504 127.194 188.148 126.272 189.832 124.828C191.516 123.305 193.039 120.739 194.402 117.131L222.666 44.2449C222.987 44.2449 223.308 44.2449 223.629 44.2449C223.949 44.2449 224.27 44.2449 224.591 44.2449ZM239.264 95.3612V97.7667H203.423L204.625 95.3612H239.264ZM284.112 66.7361V140.584C284.112 144.032 285.114 146.317 287.119 147.44C289.204 148.642 292.05 149.244 295.658 149.244V151.77C293.894 151.689 291.449 151.569 288.322 151.409C285.195 151.329 281.867 151.288 278.339 151.288C275.853 151.288 273.368 151.329 270.882 151.409C268.477 151.569 266.632 151.689 265.349 151.77V149.244C268.236 149.244 270.281 148.723 271.483 147.68C272.686 146.638 273.288 144.673 273.288 141.787V81.1689C273.288 77.5607 272.646 74.9147 271.363 73.2309C270.08 71.4669 267.675 70.5848 264.147 70.5848V68.0591C266.713 68.2996 269.198 68.4199 271.604 68.4199C273.929 68.4199 276.134 68.2996 278.219 68.0591C280.384 67.7384 282.348 67.2974 284.112 66.7361ZM303.356 66.3753C307.606 66.3753 311.414 67.5379 314.782 69.8632C318.15 72.1083 320.796 75.4359 322.72 79.8459C324.725 84.2559 325.727 89.7083 325.727 96.2031C325.727 100.533 325.206 104.823 324.163 109.072C323.121 113.242 321.477 117.051 319.232 120.498C317.067 123.866 314.221 126.592 310.693 128.677C307.245 130.682 303.075 131.684 298.184 131.684C294.416 131.684 291.128 130.802 288.322 129.038C285.596 127.274 283.751 125.149 282.789 122.663L283.992 120.979C285.114 123.225 286.718 125.109 288.803 126.632C290.968 128.156 293.654 128.918 296.861 128.918C301.351 128.918 304.839 127.514 307.325 124.708C309.811 121.902 311.535 118.173 312.497 113.523C313.539 108.792 314.06 103.58 314.06 97.8869C314.06 91.4724 313.539 86.2204 312.497 82.1311C311.454 78.0418 309.891 74.9949 307.806 72.9903C305.721 70.9858 303.155 69.9835 300.109 69.9835C296.18 69.9835 292.611 71.6272 289.404 74.9147C286.197 78.122 284.152 83.0131 283.27 89.5881L281.827 87.9042C282.709 81.0887 285.114 75.7967 289.043 72.0281C293.052 68.2596 297.823 66.3753 303.356 66.3753ZM353.998 66.7361V140.584C353.998 144.032 355 146.317 357.005 147.44C359.089 148.642 361.936 149.244 365.544 149.244V151.77C363.78 151.689 361.334 151.569 358.207 151.409C355.08 151.329 351.753 151.288 348.225 151.288C345.739 151.288 343.253 151.329 340.768 151.409C338.362 151.569 336.518 151.689 335.235 151.77V149.244C338.122 149.244 340.166 148.723 341.369 147.68C342.572 146.638 343.173 144.673 343.173 141.787V81.1689C343.173 77.5607 342.532 74.9147 341.249 73.2309C339.966 71.4669 337.56 70.5848 334.032 70.5848V68.0591C336.598 68.2996 339.084 68.4199 341.489 68.4199C343.815 68.4199 346.02 68.2996 348.104 68.0591C350.269 67.7384 352.234 67.2974 353.998 66.7361ZM373.241 66.3753C377.491 66.3753 381.3 67.5379 384.667 69.8632C388.035 72.1083 390.681 75.4359 392.605 79.8459C394.61 84.2559 395.612 89.7083 395.612 96.2031C395.612 100.533 395.091 104.823 394.049 109.072C393.006 113.242 391.363 117.051 389.118 120.498C386.953 123.866 384.106 126.592 380.578 128.677C377.13 130.682 372.961 131.684 368.07 131.684C364.301 131.684 361.014 130.802 358.207 129.038C355.481 127.274 353.637 125.149 352.675 122.663L353.877 120.979C355 123.225 356.604 125.109 358.688 126.632C360.853 128.156 363.539 128.918 366.747 128.918C371.237 128.918 374.725 127.514 377.21 124.708C379.696 121.902 381.42 118.173 382.382 113.523C383.425 108.792 383.946 103.58 383.946 97.8869C383.946 91.4724 383.425 86.2204 382.382 82.1311C381.34 78.0418 379.776 74.9949 377.692 72.9903C375.607 70.9858 373.041 69.9835 369.994 69.9835C366.065 69.9835 362.497 71.6272 359.29 74.9147C356.082 78.122 354.038 83.0131 353.156 89.5881L351.712 87.9042C352.594 81.0887 355 75.7967 358.929 72.0281C362.938 68.2596 367.709 66.3753 373.241 66.3753ZM423.883 35.7055V118.815C423.883 122.182 424.565 124.467 425.928 125.67C427.371 126.873 429.737 127.474 433.024 127.474V130C431.661 129.92 429.576 129.84 426.77 129.759C424.044 129.599 421.277 129.519 418.471 129.519C415.745 129.519 412.978 129.599 410.172 129.759C407.366 129.84 405.281 129.92 403.918 130V127.474C407.205 127.474 409.531 126.873 410.894 125.67C412.337 124.467 413.059 122.182 413.059 118.815V50.1383C413.059 46.5301 412.417 43.8841 411.134 42.2003C409.851 40.4363 407.446 39.5543 403.918 39.5543V37.0285C406.484 37.2691 408.969 37.3893 411.375 37.3893C413.7 37.3893 415.905 37.2691 417.99 37.0285C420.155 36.7078 422.119 36.2668 423.883 35.7055ZM452.885 37.9907C454.97 37.9907 456.774 38.7524 458.297 40.2759C459.821 41.7994 460.583 43.6035 460.583 45.6882C460.583 47.773 459.821 49.5771 458.297 51.1005C456.774 52.624 454.97 53.3857 452.885 53.3857C450.8 53.3857 448.996 52.624 447.473 51.1005C445.949 49.5771 445.188 47.773 445.188 45.6882C445.188 43.6035 445.949 41.7994 447.473 40.2759C448.996 38.7524 450.8 37.9907 452.885 37.9907ZM459.139 66.7361V118.815C459.139 122.182 459.821 124.467 461.184 125.67C462.627 126.873 464.993 127.474 468.28 127.474V130C466.917 129.92 464.832 129.84 462.026 129.759C459.3 129.599 456.533 129.519 453.727 129.519C451.001 129.519 448.235 129.599 445.428 129.759C442.622 129.84 440.537 129.92 439.174 130V127.474C442.461 127.474 444.787 126.873 446.15 125.67C447.593 124.467 448.315 122.182 448.315 118.815V81.1689C448.315 77.5607 447.673 74.9147 446.39 73.2309C445.107 71.4669 442.702 70.5848 439.174 70.5848V68.0591C441.74 68.2996 444.225 68.4199 446.631 68.4199C448.956 68.4199 451.161 68.2996 453.246 68.0591C455.411 67.7384 457.375 67.2974 459.139 66.7361ZM504.479 66.3753C507.045 66.3753 509.53 66.696 511.936 67.3375C514.341 67.9789 516.506 68.9411 518.43 70.224C520.275 71.4268 521.678 72.83 522.64 74.4336C523.602 75.9571 524.083 77.6409 524.083 79.4851C524.083 81.65 523.482 83.3338 522.279 84.5366C521.076 85.6591 519.553 86.2204 517.709 86.2204C515.945 86.2204 514.381 85.6992 513.018 84.6569C511.735 83.6145 511.094 82.1311 511.094 80.2067C511.094 78.3625 511.575 76.8792 512.537 75.7566C513.579 74.6341 514.782 73.9124 516.145 73.5917C515.343 72.1484 513.9 70.9457 511.815 69.9835C509.811 69.0213 507.646 68.5402 505.321 68.5402C503.316 68.5402 501.312 69.0213 499.307 69.9835C497.302 70.9457 495.458 72.5493 493.774 74.7944C492.091 76.9593 490.727 79.9662 489.685 83.8149C488.643 87.5835 488.122 92.3143 488.122 98.0072C488.122 105.063 488.923 110.676 490.527 114.846C492.131 119.015 494.215 122.022 496.781 123.866C499.427 125.63 502.314 126.512 505.441 126.512C507.526 126.512 509.65 126.111 511.815 125.309C513.98 124.508 516.025 123.225 517.949 121.461C519.874 119.616 521.517 117.171 522.881 114.124L525.166 114.966C524.364 117.532 523.041 120.138 521.197 122.784C519.353 125.349 516.947 127.474 513.98 129.158C511.014 130.842 507.365 131.684 503.035 131.684C498.064 131.684 493.574 130.401 489.565 127.835C485.556 125.269 482.348 121.621 479.943 116.89C477.618 112.079 476.455 106.386 476.455 99.8113C476.455 93.2364 477.618 87.4632 479.943 82.4919C482.348 77.4404 485.676 73.5115 489.926 70.7051C494.175 67.8185 499.026 66.3753 504.479 66.3753ZM549.982 130.842C546.694 130.842 543.848 130.241 541.442 129.038C539.037 127.755 537.193 125.991 535.91 123.746C534.707 121.501 534.105 118.895 534.105 115.928C534.105 112.4 534.907 109.513 536.511 107.268C538.195 105.023 540.32 103.219 542.885 101.856C545.451 100.493 548.137 99.3703 550.944 98.4883C553.83 97.5261 556.557 96.6441 559.122 95.8423C561.688 94.9603 563.773 93.958 565.377 92.8355C567.06 91.7129 567.902 90.2295 567.902 88.3853V80.9284C567.902 77.5607 567.381 74.9949 566.339 73.2309C565.377 71.4669 564.054 70.3042 562.37 69.7429C560.686 69.1015 558.802 68.7807 556.717 68.7807C554.712 68.7807 552.547 69.0614 550.222 69.6227C547.977 70.1839 546.173 71.3466 544.81 73.1106C546.333 73.4313 547.656 74.2331 548.779 75.5161C549.901 76.799 550.463 78.4427 550.463 80.4473C550.463 82.4518 549.821 84.0555 548.538 85.2582C547.255 86.3808 545.612 86.9421 543.607 86.9421C541.282 86.9421 539.558 86.2204 538.435 84.7771C537.393 83.2537 536.872 81.5698 536.872 79.7256C536.872 77.6409 537.393 75.9571 538.435 74.6741C539.478 73.3912 540.801 72.1885 542.404 71.0659C544.249 69.783 546.614 68.7006 549.501 67.8186C552.467 66.8564 555.795 66.3753 559.483 66.3753C562.771 66.3753 565.577 66.7762 567.902 67.578C570.228 68.2996 572.152 69.3821 573.676 70.8254C575.76 72.7498 577.123 75.1151 577.765 77.9215C578.406 80.6477 578.727 83.9352 578.727 87.784V121.22C578.727 123.225 579.008 124.668 579.569 125.55C580.21 126.432 581.173 126.873 582.455 126.873C583.337 126.873 584.179 126.672 584.981 126.272C585.783 125.871 586.745 125.229 587.868 124.347L589.191 126.392C587.507 127.675 585.903 128.757 584.38 129.639C582.856 130.441 580.812 130.842 578.246 130.842C575.921 130.842 573.996 130.441 572.473 129.639C570.949 128.837 569.787 127.675 568.985 126.151C568.263 124.548 567.902 122.543 567.902 120.138C565.737 123.746 563.132 126.432 560.085 128.196C557.118 129.96 553.75 130.842 549.982 130.842ZM554.311 126.031C556.957 126.031 559.403 125.269 561.648 123.746C563.973 122.222 566.058 119.937 567.902 116.89V93.3166C566.94 94.6797 565.537 95.8423 563.693 96.8045C561.849 97.6865 559.844 98.6086 557.679 99.5708C555.514 100.453 553.429 101.535 551.425 102.818C549.501 104.021 547.897 105.625 546.614 107.629C545.331 109.634 544.69 112.24 544.69 115.447C544.69 118.654 545.531 121.22 547.215 123.144C548.979 125.069 551.345 126.031 554.311 126.031ZM628.526 66.3753C635.101 66.3753 640.553 69.1015 644.883 74.5539C649.213 79.9261 651.378 88.1047 651.378 99.0897C651.378 106.306 650.135 112.36 647.649 117.251C645.244 122.062 641.997 125.67 637.907 128.076C633.818 130.481 629.368 131.684 624.557 131.684C620.548 131.684 616.659 130.561 612.89 128.316C609.202 125.991 606.436 122.583 604.591 118.093L606.997 119.416C609.001 122.623 611.487 125.029 614.454 126.632C617.421 128.156 620.468 128.918 623.595 128.918C628.967 128.918 632.976 126.512 635.622 121.701C638.348 116.81 639.711 109.273 639.711 99.0897C639.711 92.5949 639.19 87.1826 638.148 82.8528C637.105 78.5229 635.502 75.3156 633.337 73.2309C631.172 71.0659 628.406 69.9835 625.038 69.9835C621.35 69.9835 617.902 71.6673 614.694 75.035C611.567 78.3224 609.643 83.1735 608.921 89.5881L607.478 87.9042C608.36 81.0887 610.725 75.7967 614.574 72.0281C618.503 68.2596 623.154 66.3753 628.526 66.3753ZM609.763 35.8258V123.746C608.721 124.628 607.638 125.55 606.516 126.512C605.473 127.394 604.431 128.276 603.389 129.158C602.346 130.04 601.264 130.962 600.141 131.924L598.097 131.082C598.417 129.96 598.618 128.837 598.698 127.715C598.858 126.512 598.939 125.309 598.939 124.107V50.2586C598.939 46.6504 598.297 44.0044 597.014 42.3205C595.731 40.5565 593.326 39.6745 589.798 39.6745V37.1488C592.364 37.3893 594.849 37.5096 597.255 37.5096C599.58 37.5096 601.785 37.3893 603.87 37.1488C606.035 36.8281 607.999 36.3871 609.763 35.8258ZM678.525 35.7055V118.815C678.525 122.182 679.206 124.467 680.57 125.67C682.013 126.873 684.378 127.474 687.666 127.474V130C686.303 129.92 684.218 129.84 681.412 129.759C678.685 129.599 675.919 129.519 673.113 129.519C670.386 129.519 667.62 129.599 664.814 129.759C662.007 129.84 659.923 129.92 658.56 130V127.474C661.847 127.474 664.172 126.873 665.535 125.67C666.979 124.467 667.7 122.182 667.7 118.815V50.1383C667.7 46.5301 667.059 43.8841 665.776 42.2003C664.493 40.4363 662.088 39.5543 658.56 39.5543V37.0285C661.125 37.2691 663.611 37.3893 666.016 37.3893C668.342 37.3893 670.547 37.2691 672.632 37.0285C674.796 36.7078 676.761 36.2668 678.525 35.7055ZM721.868 66.3753C728.924 66.3753 734.416 68.5402 738.345 72.87C742.354 77.1197 744.359 83.7748 744.359 92.8355H701.902L701.782 90.5503H732.813C732.973 86.6213 732.652 83.0131 731.85 79.7256C731.049 76.358 729.766 73.6719 728.002 71.6673C726.318 69.6627 724.113 68.6605 721.387 68.6605C717.698 68.6605 714.411 70.5047 711.524 74.1931C708.718 77.8814 707.034 83.7348 706.473 91.753L706.833 92.2341C706.673 93.4368 706.553 94.7598 706.473 96.2031C706.392 97.6464 706.352 99.0897 706.352 100.533C706.352 105.985 707.234 110.676 708.998 114.605C710.762 118.534 713.048 121.541 715.854 123.625C718.741 125.63 721.707 126.632 724.754 126.632C727.16 126.632 729.445 126.272 731.61 125.55C733.775 124.748 735.779 123.465 737.623 121.701C739.468 119.937 741.071 117.572 742.434 114.605L744.84 115.567C743.958 118.213 742.515 120.779 740.51 123.265C738.505 125.75 735.98 127.795 732.933 129.399C729.886 130.922 726.358 131.684 722.349 131.684C716.576 131.684 711.604 130.361 707.435 127.715C703.345 125.069 700.178 121.42 697.933 116.77C695.768 112.039 694.686 106.627 694.686 100.533C694.686 93.4769 695.808 87.4231 698.053 82.3717C700.299 77.24 703.466 73.311 707.555 70.5848C711.644 67.7785 716.415 66.3753 721.868 66.3753Z" fill="white"/>
</svg>
