<svg width="1000" height="934" viewBox="0 0 1000 934" fill="none" xmlns="http://www.w3.org/2000/svg">
<path d="M436.675 44.5586L17.5312 662.243L0 688.079H87.71L45.1328 750.446L27.4688 776.32H316.459L438.42 903.583L466.91 933.312V0L436.675 44.5586ZM433.82 850.959L335.465 748.327L330.579 743.229H90.125L433.82 239.788V850.959Z" fill="white"/>
<path d="M563.326 44.5586L982.47 662.243L1000 688.079H912.291L954.868 750.446L972.532 776.32H683.542L561.581 903.583L533.091 933.312V0L563.326 44.5586ZM566.181 850.959L664.536 748.327L669.422 743.229H909.876L566.181 239.788V850.959Z" fill="white"/>
</svg>
