<svg width="1000" height="936" viewBox="0 0 1000 936" fill="none" xmlns="http://www.w3.org/2000/svg">
<path d="M428.862 57.5752L22.6526 656.199L0.000244141 689.581H84.9622L49.4104 741.656L26.5862 775.088H314.496L431.116 896.778L467.93 935.192V668.203H467.931V0L428.862 57.5752ZM425.173 828.78L339.055 738.918L332.742 732.331H107.547L425.173 267.076V828.78Z" fill="white"/>
<path d="M571.138 57.5752L977.347 656.199L1000 689.581H915.038L950.589 741.656L973.414 775.088H685.503L568.883 896.778L532.07 935.192V668.203H532.069V0L571.138 57.5752ZM574.827 828.78L660.945 738.918L667.257 732.331H892.453L574.827 267.076V828.78Z" fill="white"/>
</svg>
