<svg width="147" height="138" viewBox="0 0 147 138" fill="none" xmlns="http://www.w3.org/2000/svg">
<path d="M61.3682 10.7725L4.23828 94.9639L0 101.21H11.9424L8.00195 106.981L3.73145 113.236H45.6807L61.7891 130.045L68.6768 137.232V97.21H68.6777V0L61.3682 10.7725ZM60.6768 117.321L50.2754 106.469L49.0947 105.236H18.8799L60.6768 44.0117V117.321Z" fill="white"/>
<path d="M85.0078 10.7725L142.138 94.9639L146.376 101.21H134.433L138.373 106.981L142.644 113.236H100.694L84.5859 130.045L77.6982 137.232V0L85.0078 10.7725ZM85.6982 117.321L96.0996 106.469L97.2803 105.236H127.495L85.6982 44.0117V117.321Z" fill="white"/>
</svg>
