<svg width="753" height="160" viewBox="0 0 753 160" fill="none" xmlns="http://www.w3.org/2000/svg">
<path d="M61.3682 21.7759L4.23828 105.967L0 112.213H11.9424L8.00195 117.985L3.73145 124.24H45.6807L61.7891 141.048L68.6768 148.236V108.213H68.6777V11.0034L61.3682 21.7759ZM60.6768 128.325L50.2754 117.472L49.0947 116.24H18.8799L60.6768 55.0151V128.325Z" fill="white"/>
<path d="M83.0215 21.7759L140.151 105.967L144.39 112.213H132.446L136.387 117.985L140.657 124.24H98.708L82.5996 141.048L75.7119 148.236V11.0034L83.0215 21.7759ZM83.7119 128.325L94.1133 117.472L95.2939 116.24H125.509L83.7119 55.0151V128.325Z" fill="white"/>
<path d="M226.465 44.2449L255.812 119.897C257.014 122.944 258.377 124.989 259.901 126.031C261.424 126.993 262.828 127.514 264.11 127.595V130C262.507 129.84 260.542 129.759 258.217 129.759C255.892 129.679 253.566 129.639 251.241 129.639C248.114 129.639 245.187 129.679 242.461 129.759C239.735 129.759 237.53 129.84 235.846 130V127.595C239.935 127.434 242.541 126.753 243.664 125.55C244.787 124.267 244.546 121.581 242.942 117.492L220.571 57.7156L222.496 56.152L201.568 110.516C200.285 113.723 199.524 116.449 199.283 118.694C199.042 120.859 199.243 122.583 199.884 123.866C200.606 125.149 201.769 126.071 203.372 126.632C205.056 127.194 207.141 127.514 209.627 127.595V130C207.381 129.84 205.016 129.759 202.53 129.759C200.125 129.679 197.88 129.639 195.795 129.639C193.79 129.639 192.067 129.679 190.623 129.759C189.26 129.759 187.977 129.84 186.775 130V127.595C188.378 127.194 190.022 126.272 191.706 124.828C193.39 123.305 194.913 120.739 196.276 117.131L224.54 44.2449C224.861 44.2449 225.182 44.2449 225.503 44.2449C225.823 44.2449 226.144 44.2449 226.465 44.2449ZM241.138 95.3612V97.7667H205.297L206.499 95.3612H241.138ZM285.986 66.7361V140.584C285.986 144.032 286.988 146.317 288.993 147.44C291.078 148.642 293.924 149.244 297.532 149.244V151.77C295.768 151.689 293.323 151.569 290.196 151.409C287.069 151.329 283.741 151.288 280.213 151.288C277.727 151.288 275.242 151.329 272.756 151.409C270.351 151.569 268.506 151.689 267.223 151.77V149.244C270.11 149.244 272.155 148.723 273.357 147.68C274.56 146.638 275.162 144.673 275.162 141.787V81.1689C275.162 77.5607 274.52 74.9147 273.237 73.2309C271.954 71.4669 269.549 70.5848 266.021 70.5848V68.0591C268.587 68.2996 271.072 68.4199 273.478 68.4199C275.803 68.4199 278.008 68.2996 280.093 68.0591C282.258 67.7384 284.222 67.2974 285.986 66.7361ZM305.23 66.3753C309.48 66.3753 313.288 67.5379 316.656 69.8632C320.024 72.1083 322.67 75.4359 324.594 79.8459C326.599 84.2559 327.601 89.7083 327.601 96.2031C327.601 100.533 327.08 104.823 326.037 109.072C324.995 113.242 323.351 117.051 321.106 120.498C318.941 123.866 316.095 126.592 312.567 128.677C309.119 130.682 304.949 131.684 300.058 131.684C296.29 131.684 293.002 130.802 290.196 129.038C287.47 127.274 285.625 125.149 284.663 122.663L285.866 120.979C286.988 123.225 288.592 125.109 290.677 126.632C292.842 128.156 295.528 128.918 298.735 128.918C303.225 128.918 306.713 127.514 309.199 124.708C311.685 121.902 313.409 118.173 314.371 113.523C315.413 108.792 315.934 103.58 315.934 97.8869C315.934 91.4724 315.413 86.2204 314.371 82.1311C313.328 78.0418 311.765 74.9949 309.68 72.9903C307.595 70.9858 305.029 69.9835 301.983 69.9835C298.054 69.9835 294.485 71.6272 291.278 74.9147C288.071 78.122 286.026 83.0131 285.144 89.5881L283.701 87.9042C284.583 81.0887 286.988 75.7967 290.917 72.0281C294.926 68.2596 299.697 66.3753 305.23 66.3753ZM355.872 66.7361V140.584C355.872 144.032 356.874 146.317 358.879 147.44C360.963 148.642 363.81 149.244 367.418 149.244V151.77C365.654 151.689 363.208 151.569 360.081 151.409C356.954 151.329 353.627 151.288 350.099 151.288C347.613 151.288 345.127 151.329 342.642 151.409C340.236 151.569 338.392 151.689 337.109 151.77V149.244C339.996 149.244 342.04 148.723 343.243 147.68C344.446 146.638 345.047 144.673 345.047 141.787V81.1689C345.047 77.5607 344.406 74.9147 343.123 73.2309C341.84 71.4669 339.434 70.5848 335.906 70.5848V68.0591C338.472 68.2996 340.958 68.4199 343.363 68.4199C345.689 68.4199 347.894 68.2996 349.978 68.0591C352.143 67.7384 354.108 67.2974 355.872 66.7361ZM375.115 66.3753C379.365 66.3753 383.174 67.5379 386.541 69.8632C389.909 72.1083 392.555 75.4359 394.48 79.8459C396.484 84.2559 397.486 89.7083 397.486 96.2031C397.486 100.533 396.965 104.823 395.923 109.072C394.88 113.242 393.237 117.051 390.992 120.498C388.827 123.866 385.98 126.592 382.452 128.677C379.004 130.682 374.835 131.684 369.944 131.684C366.175 131.684 362.888 130.802 360.081 129.038C357.355 127.274 355.511 125.149 354.549 122.663L355.751 120.979C356.874 123.225 358.478 125.109 360.562 126.632C362.727 128.156 365.413 128.918 368.621 128.918C373.111 128.918 376.599 127.514 379.084 124.708C381.57 121.902 383.294 118.173 384.256 113.523C385.299 108.792 385.82 103.58 385.82 97.8869C385.82 91.4724 385.299 86.2204 384.256 82.1311C383.214 78.0418 381.65 74.9949 379.566 72.9903C377.481 70.9858 374.915 69.9835 371.868 69.9835C367.939 69.9835 364.371 71.6272 361.164 74.9147C357.956 78.122 355.912 83.0131 355.03 89.5881L353.586 87.9042C354.468 81.0887 356.874 75.7967 360.803 72.0281C364.812 68.2596 369.583 66.3753 375.115 66.3753ZM425.757 35.7055V118.815C425.757 122.182 426.439 124.467 427.802 125.67C429.245 126.873 431.611 127.474 434.898 127.474V130C433.535 129.92 431.45 129.84 428.644 129.759C425.918 129.599 423.151 129.519 420.345 129.519C417.619 129.519 414.852 129.599 412.046 129.759C409.24 129.84 407.155 129.92 405.792 130V127.474C409.079 127.474 411.405 126.873 412.768 125.67C414.211 124.467 414.933 122.182 414.933 118.815V50.1383C414.933 46.5301 414.291 43.8841 413.008 42.2003C411.725 40.4363 409.32 39.5543 405.792 39.5543V37.0285C408.358 37.2691 410.843 37.3893 413.249 37.3893C415.574 37.3893 417.779 37.2691 419.864 37.0285C422.029 36.7078 423.993 36.2668 425.757 35.7055ZM454.759 37.9907C456.844 37.9907 458.648 38.7524 460.171 40.2759C461.695 41.7994 462.457 43.6035 462.457 45.6882C462.457 47.773 461.695 49.5771 460.171 51.1005C458.648 52.624 456.844 53.3857 454.759 53.3857C452.674 53.3857 450.87 52.624 449.347 51.1005C447.823 49.5771 447.062 47.773 447.062 45.6882C447.062 43.6035 447.823 41.7994 449.347 40.2759C450.87 38.7524 452.674 37.9907 454.759 37.9907ZM461.013 66.7361V118.815C461.013 122.182 461.695 124.467 463.058 125.67C464.501 126.873 466.867 127.474 470.154 127.474V130C468.791 129.92 466.706 129.84 463.9 129.759C461.174 129.599 458.407 129.519 455.601 129.519C452.875 129.519 450.109 129.599 447.302 129.759C444.496 129.84 442.411 129.92 441.048 130V127.474C444.335 127.474 446.661 126.873 448.024 125.67C449.467 124.467 450.189 122.182 450.189 118.815V81.1689C450.189 77.5607 449.547 74.9147 448.264 73.2309C446.981 71.4669 444.576 70.5848 441.048 70.5848V68.0591C443.614 68.2996 446.099 68.4199 448.505 68.4199C450.83 68.4199 453.035 68.2996 455.12 68.0591C457.285 67.7384 459.249 67.2974 461.013 66.7361ZM506.353 66.3753C508.919 66.3753 511.404 66.696 513.81 67.3375C516.215 67.9789 518.38 68.9411 520.304 70.224C522.149 71.4268 523.552 72.83 524.514 74.4336C525.476 75.9571 525.957 77.6409 525.957 79.4851C525.957 81.65 525.356 83.3338 524.153 84.5366C522.951 85.6591 521.427 86.2204 519.583 86.2204C517.819 86.2204 516.255 85.6992 514.892 84.6569C513.609 83.6145 512.968 82.1311 512.968 80.2067C512.968 78.3625 513.449 76.8792 514.411 75.7566C515.453 74.6341 516.656 73.9124 518.019 73.5917C517.217 72.1484 515.774 70.9457 513.689 69.9835C511.685 69.0213 509.52 68.5402 507.195 68.5402C505.19 68.5402 503.186 69.0213 501.181 69.9835C499.176 70.9457 497.332 72.5493 495.648 74.7944C493.965 76.9593 492.601 79.9662 491.559 83.8149C490.517 87.5835 489.996 92.3143 489.996 98.0072C489.996 105.063 490.797 110.676 492.401 114.846C494.005 119.015 496.089 122.022 498.655 123.866C501.301 125.63 504.188 126.512 507.315 126.512C509.4 126.512 511.525 126.111 513.689 125.309C515.854 124.508 517.899 123.225 519.823 121.461C521.748 119.616 523.392 117.171 524.755 114.124L527.04 114.966C526.238 117.532 524.915 120.138 523.071 122.784C521.227 125.349 518.821 127.474 515.854 129.158C512.888 130.842 509.239 131.684 504.909 131.684C499.938 131.684 495.448 130.401 491.439 127.835C487.43 125.269 484.222 121.621 481.817 116.89C479.492 112.079 478.329 106.386 478.329 99.8113C478.329 93.2364 479.492 87.4632 481.817 82.4919C484.222 77.4404 487.55 73.5115 491.8 70.7051C496.049 67.8185 500.9 66.3753 506.353 66.3753ZM551.856 130.842C548.568 130.842 545.722 130.241 543.316 129.038C540.911 127.755 539.067 125.991 537.784 123.746C536.581 121.501 535.98 118.895 535.98 115.928C535.98 112.4 536.781 109.513 538.385 107.268C540.069 105.023 542.194 103.219 544.759 101.856C547.325 100.493 550.011 99.3703 552.818 98.4883C555.704 97.5261 558.431 96.6441 560.996 95.8423C563.562 94.9603 565.647 93.958 567.251 92.8355C568.934 91.7129 569.776 90.2295 569.776 88.3853V80.9284C569.776 77.5607 569.255 74.9949 568.213 73.2309C567.251 71.4669 565.928 70.3042 564.244 69.7429C562.56 69.1015 560.676 68.7807 558.591 68.7807C556.586 68.7807 554.421 69.0614 552.096 69.6227C549.851 70.1839 548.047 71.3466 546.684 73.1106C548.207 73.4313 549.53 74.2331 550.653 75.5161C551.775 76.799 552.337 78.4427 552.337 80.4473C552.337 82.4518 551.695 84.0555 550.412 85.2582C549.129 86.3808 547.486 86.9421 545.481 86.9421C543.156 86.9421 541.432 86.2204 540.309 84.7771C539.267 83.2537 538.746 81.5698 538.746 79.7256C538.746 77.6409 539.267 75.9571 540.309 74.6741C541.352 73.3912 542.675 72.1885 544.278 71.0659C546.123 69.783 548.488 68.7006 551.375 67.8186C554.341 66.8564 557.669 66.3753 561.357 66.3753C564.645 66.3753 567.451 66.7762 569.776 67.578C572.102 68.2996 574.026 69.3821 575.55 70.8254C577.634 72.7498 578.997 75.1151 579.639 77.9215C580.28 80.6477 580.601 83.9352 580.601 87.784V121.22C580.601 123.225 580.882 124.668 581.443 125.55C582.084 126.432 583.047 126.873 584.33 126.873C585.212 126.873 586.053 126.672 586.855 126.272C587.657 125.871 588.619 125.229 589.742 124.347L591.065 126.392C589.381 127.675 587.777 128.757 586.254 129.639C584.73 130.441 582.686 130.842 580.12 130.842C577.795 130.842 575.87 130.441 574.347 129.639C572.823 128.837 571.661 127.675 570.859 126.151C570.137 124.548 569.776 122.543 569.776 120.138C567.611 123.746 565.006 126.432 561.959 128.196C558.992 129.96 555.624 130.842 551.856 130.842ZM556.185 126.031C558.832 126.031 561.277 125.269 563.522 123.746C565.847 122.222 567.932 119.937 569.776 116.89V93.3166C568.814 94.6797 567.411 95.8423 565.567 96.8045C563.723 97.6865 561.718 98.6086 559.553 99.5708C557.388 100.453 555.303 101.535 553.299 102.818C551.375 104.021 549.771 105.625 548.488 107.629C547.205 109.634 546.564 112.24 546.564 115.447C546.564 118.654 547.406 121.22 549.089 123.144C550.853 125.069 553.219 126.031 556.185 126.031ZM630.4 66.3753C636.975 66.3753 642.427 69.1015 646.757 74.5539C651.087 79.9261 653.252 88.1047 653.252 99.0897C653.252 106.306 652.009 112.36 649.523 117.251C647.118 122.062 643.871 125.67 639.781 128.076C635.692 130.481 631.242 131.684 626.431 131.684C622.422 131.684 618.533 130.561 614.764 128.316C611.076 125.991 608.31 122.583 606.465 118.093L608.871 119.416C610.876 122.623 613.361 125.029 616.328 126.632C619.295 128.156 622.342 128.918 625.469 128.918C630.841 128.918 634.85 126.512 637.496 121.701C640.222 116.81 641.585 109.273 641.585 99.0897C641.585 92.5949 641.064 87.1826 640.022 82.8528C638.979 78.5229 637.376 75.3156 635.211 73.2309C633.046 71.0659 630.28 69.9835 626.912 69.9835C623.224 69.9835 619.776 71.6673 616.568 75.035C613.441 78.3224 611.517 83.1735 610.795 89.5881L609.352 87.9042C610.234 81.0887 612.599 75.7967 616.448 72.0281C620.377 68.2596 625.028 66.3753 630.4 66.3753ZM611.637 35.8258V123.746C610.595 124.628 609.512 125.55 608.39 126.512C607.347 127.394 606.305 128.276 605.263 129.158C604.22 130.04 603.138 130.962 602.015 131.924L599.971 131.082C600.291 129.96 600.492 128.837 600.572 127.715C600.732 126.512 600.813 125.309 600.813 124.107V50.2586C600.813 46.6504 600.171 44.0044 598.888 42.3205C597.605 40.5565 595.2 39.6745 591.672 39.6745V37.1488C594.238 37.3893 596.723 37.5096 599.129 37.5096C601.454 37.5096 603.659 37.3893 605.744 37.1488C607.909 36.8281 609.873 36.3871 611.637 35.8258ZM680.399 35.7055V118.815C680.399 122.182 681.081 124.467 682.444 125.67C683.887 126.873 686.252 127.474 689.54 127.474V130C688.177 129.92 686.092 129.84 683.286 129.759C680.559 129.599 677.793 129.519 674.987 129.519C672.26 129.519 669.494 129.599 666.688 129.759C663.881 129.84 661.797 129.92 660.434 130V127.474C663.721 127.474 666.046 126.873 667.409 125.67C668.853 124.467 669.574 122.182 669.574 118.815V50.1383C669.574 46.5301 668.933 43.8841 667.65 42.2003C666.367 40.4363 663.962 39.5543 660.434 39.5543V37.0285C662.999 37.2691 665.485 37.3893 667.891 37.3893C670.216 37.3893 672.421 37.2691 674.506 37.0285C676.67 36.7078 678.635 36.2668 680.399 35.7055ZM723.742 66.3753C730.798 66.3753 736.29 68.5402 740.219 72.87C744.228 77.1197 746.233 83.7748 746.233 92.8355H703.776L703.656 90.5503H734.687C734.847 86.6213 734.526 83.0131 733.724 79.7256C732.923 76.358 731.64 73.6719 729.876 71.6673C728.192 69.6627 725.987 68.6605 723.261 68.6605C719.572 68.6605 716.285 70.5047 713.398 74.1931C710.592 77.8814 708.908 83.7348 708.347 91.753L708.707 92.2341C708.547 93.4368 708.427 94.7598 708.347 96.2031C708.266 97.6464 708.226 99.0897 708.226 100.533C708.226 105.985 709.108 110.676 710.872 114.605C712.636 118.534 714.922 121.541 717.728 123.625C720.615 125.63 723.581 126.632 726.628 126.632C729.034 126.632 731.319 126.272 733.484 125.55C735.649 124.748 737.653 123.465 739.497 121.701C741.342 119.937 742.945 117.572 744.308 114.605L746.714 115.567C745.832 118.213 744.389 120.779 742.384 123.265C740.379 125.75 737.854 127.795 734.807 129.399C731.76 130.922 728.232 131.684 724.223 131.684C718.45 131.684 713.478 130.361 709.309 127.715C705.22 125.069 702.052 121.42 699.807 116.77C697.642 112.039 696.56 106.627 696.56 100.533C696.56 93.4769 697.682 87.4231 699.927 82.3717C702.173 77.24 705.34 73.311 709.429 70.5848C713.518 67.7785 718.289 66.3753 723.742 66.3753Z" fill="white"/>
</svg>
